<?xml version="1.0" standalone="no"?>
<!DOCTYPE svg PUBLIC "-//W3C//DTD SVG 20010904//EN"
 "http://www.w3.org/TR/2001/REC-SVG-20010904/DTD/svg10.dtd">
<svg version="1.0" xmlns="http://www.w3.org/2000/svg"
 width="96.000000pt" height="96.000000pt" viewBox="0 0 96.000000 96.000000"
 preserveAspectRatio="xMidYMid meet">

<g transform="translate(0.000000,96.000000) scale(0.100000,-0.100000)"
fill="#000000" stroke="none">
<path d="M376 850 c-74 -37 -107 -80 -125 -162 -15 -67 -4 -110 55 -206 l52
-87 -61 -3 -62 -3 -52 -155 -52 -154 341 0 c268 0 339 3 336 13 -3 6 -26 76
-52 155 l-48 142 -59 0 c-32 0 -59 3 -59 7 0 3 20 39 45 79 57 91 74 161 56
227 -17 58 -72 124 -125 148 -55 25 -139 24 -190 -1z m158 -95 c38 -18 76 -80
76 -122 0 -15 -8 -44 -19 -63 -66 -124 -253 -77 -253 64 0 54 19 89 65 116 39
24 87 25 131 5z"/>
<path d="M430 680 c-41 -41 -14 -110 42 -110 55 0 81 77 38 112 -29 23 -55 23
-80 -2z"/>
</g>
</svg>
